PathFileType	4	(X/Y/Z)	C:/Users/dbak576/Desktop/Duncan Bakke Modelling Files/H22s1/Static_H22s1.trc	
DataRate	CameraRate	NumFrames	NumMarkers	Units	OrigDataRate	OrigDataStartFrame	OrigNumFrames	
200.00	200.00	2	240	mm	200.00	283	37	
Frame#	Time	LFEO			LFEA			LFEL			LFEP			LTIO			LTIA			LTIL			LTIP			PELO			PELA			PELL			PELP			RFEO			RFEA			RFEL			RFEP			RTIO			RTIA			RTIL			RTIP			LFHD			RFHD			LBHD			RBHD			C7			T10			CLAV			STRN			RBack			LASI			RASI			LPSI			RPSI			RACR1			RUA1			RElbow			RElbowM			RFA1			RWRR			RWRU			RCAR			LACR1			LUA1			LElbow			LElbowM			LFA1			LWRR			LWRU			LCAR			RTH1			RTH3			RTH2			RTH4			RLFC			RMFC			RTB1			RTB3			RTB2			RTB4			RLMAL			RMMAL			RCAL			RMT1			RMT5			RToe			LTH1			LTH3			LTH2			LTH4			LLFC			LMFC			LTB1			LTB3			LTB2			LTB4			LLMAL			LMMAL			LCAL			LMT1			LMT5			LToe			CX			LAJC			LFEM1			LFEM10			LFEM11			LFEM12			LFEM13			LFEM14			LFEM15			LFEM16			LFEM2			LFEM3			LFEM4			LFEM5			LFEM6			LFEM7			LFEM8			LFEM9			LFOO1			LFOO2			LFOO3			LFOO4			LFOO5			LFOO6			LHJC			LIC			LIP			LIS			LIT			LKJC			LSI			LTIB1			LTIB10			LTIB11			LTIB12			LTIB13			LTIB14			LTIB15			LTIB16			LTIB2			LTIB3			LTIB4			LTIB5			LTIB6			LTIB7			LTIB8			LTIB9			LeftThighOrigin			LeftTibOrigin			LowerBodyModelVer			LowerTorsoOrigin			MidHJC			MidPelvis			OAnatomy			OCalRig			OHead			OLeftFemur			OLeftFoot			OLeftTibia			OPelvis			ORightFemur			ORightFoot			ORightTibia			OThorax			Oglobal			PELOrigin			RAJC			RFEM1			RFEM10			RFEM11			RFEM12			RFEM13			RFEM14			RFEM15			RFEM16			RFEM2			RFEM3			RFEM4			RFEM5			RFEM6			RFEM7			RFEM8			RFEM9			RFOO1			RFOO2			RFOO3			RFOO4			RFOO5			RFOO6			RHJC			RIC			RIP			RIS			RIT			RKJC			RSI			RTIB1			RTIB10			RTIB11			RTIB12			RTIB13			RTIB14			RTIB15			RTIB16			RTIB2			RTIB3			RTIB4			RTIB5			RTIB6			RTIB7			RTIB8			RTIB9			RightThighOrigin			RightTibOrigin			SACR			SP			ThoraxOrigin			XAnatomy			XCalRig			XHead			XLeftFemur			XLeftFoot			XLeftTibia			XPelvis			XRightFemur			XRightFoot			XRightTibia			XThorax			Xglobal			YAnatomy			YCalRig			YHead			YLeftFemur			YLeftFoot			YLeftTibia			YPelvis			YRightFemur			YRightFoot			YRightTibia			YThorax			Yglobal			ZAnatomy			ZCalRig			ZHead			ZLeftFemur			ZLeftFoot			ZLeftTibia			ZPelvis			ZRightFemur			ZRightFoot			ZRightTibia			ZThorax			Zglobal			avPEL			avTHOR			newLfootmid			newLfootside			newRfootmid			newRfootside			
		X1	Y1	Z1	X2	Y2	Z2	X3	Y3	Z3	X4	Y4	Z4	X5	Y5	Z5	X6	Y6	Z6	X7	Y7	Z7	X8	Y8	Z8	X9	Y9	Z9	X10	Y10	Z10	X11	Y11	Z11	X12	Y12	Z12	X13	Y13	Z13	X14	Y14	Z14	X15	Y15	Z15	X16	Y16	Z16	X17	Y17	Z17	X18	Y18	Z18	X19	Y19	Z19	X20	Y20	Z20	X21	Y21	Z21	X22	Y22	Z22	X23	Y23	Z23	X24	Y24	Z24	X25	Y25	Z25	X26	Y26	Z26	X27	Y27	Z27	X28	Y28	Z28	X29	Y29	Z29	X30	Y30	Z30	X31	Y31	Z31	X32	Y32	Z32	X33	Y33	Z33	X34	Y34	Z34	X35	Y35	Z35	X36	Y36	Z36	X37	Y37	Z37	X38	Y38	Z38	X39	Y39	Z39	X40	Y40	Z40	X41	Y41	Z41	X42	Y42	Z42	X43	Y43	Z43	X44	Y44	Z44	X45	Y45	Z45	X46	Y46	Z46	X47	Y47	Z47	X48	Y48	Z48	X49	Y49	Z49	X50	Y50	Z50	X51	Y51	Z51	X52	Y52	Z52	X53	Y53	Z53	X54	Y54	Z54	X55	Y55	Z55	X56	Y56	Z56	X57	Y57	Z57	X58	Y58	Z58	X59	Y59	Z59	X60	Y60	Z60	X61	Y61	Z61	X62	Y62	Z62	X63	Y63	Z63	X64	Y64	Z64	X65	Y65	Z65	X66	Y66	Z66	X67	Y67	Z67	X68	Y68	Z68	X69	Y69	Z69	X70	Y70	Z70	X71	Y71	Z71	X72	Y72	Z72	X73	Y73	Z73	X74	Y74	Z74	X75	Y75	Z75	X76	Y76	Z76	X77	Y77	Z77	X78	Y78	Z78	X79	Y79	Z79	X80	Y80	Z80	X81	Y81	Z81	X82	Y82	Z82	X83	Y83	Z83	X84	Y84	Z84	X85	Y85	Z85	X86	Y86	Z86	X87	Y87	Z87	X88	Y88	Z88	X89	Y89	Z89	X90	Y90	Z90	X91	Y91	Z91	X92	Y92	Z92	X93	Y93	Z93	X94	Y94	Z94	X95	Y95	Z95	X96	Y96	Z96	X97	Y97	Z97	X98	Y98	Z98	X99	Y99	Z99	X100	Y100	Z100	X101	Y101	Z101	X102	Y102	Z102	X103	Y103	Z103	X104	Y104	Z104	X105	Y105	Z105	X106	Y106	Z106	X107	Y107	Z107	X108	Y108	Z108	X109	Y109	Z109	X110	Y110	Z110	X111	Y111	Z111	X112	Y112	Z112	X113	Y113	Z113	X114	Y114	Z114	X115	Y115	Z115	X116	Y116	Z116	X117	Y117	Z117	X118	Y118	Z118	X119	Y119	Z119	X120	Y120	Z120	X121	Y121	Z121	X122	Y122	Z122	X123	Y123	Z123	X124	Y124	Z124	X125	Y125	Z125	X126	Y126	Z126	X127	Y127	Z127	X128	Y128	Z128	X129	Y129	Z129	X130	Y130	Z130	X131	Y131	Z131	X132	Y132	Z132	X133	Y133	Z133	X134	Y134	Z134	X135	Y135	Z135	X136	Y136	Z136	X137	Y137	Z137	X138	Y138	Z138	X139	Y139	Z139	X140	Y140	Z140	X141	Y141	Z141	X142	Y142	Z142	X143	Y143	Z143	X144	Y144	Z144	X145	Y145	Z145	X146	Y146	Z146	X147	Y147	Z147	X148	Y148	Z148	X149	Y149	Z149	X150	Y150	Z150	X151	Y151	Z151	X152	Y152	Z152	X153	Y153	Z153	X154	Y154	Z154	X155	Y155	Z155	X156	Y156	Z156	X157	Y157	Z157	X158	Y158	Z158	X159	Y159	Z159	X160	Y160	Z160	X161	Y161	Z161	X162	Y162	Z162	X163	Y163	Z163	X164	Y164	Z164	X165	Y165	Z165	X166	Y166	Z166	X167	Y167	Z167	X168	Y168	Z168	X169	Y169	Z169	X170	Y170	Z170	X171	Y171	Z171	X172	Y172	Z172	X173	Y173	Z173	X174	Y174	Z174	X175	Y175	Z175	X176	Y176	Z176	X177	Y177	Z177	X178	Y178	Z178	X179	Y179	Z179	X180	Y180	Z180	X181	Y181	Z181	X182	Y182	Z182	X183	Y183	Z183	X184	Y184	Z184	X185	Y185	Z185	X186	Y186	Z186	X187	Y187	Z187	X188	Y188	Z188	X189	Y189	Z189	X190	Y190	Z190	X191	Y191	Z191	X192	Y192	Z192	X193	Y193	Z193	X194	Y194	Z194	X195	Y195	Z195	X196	Y196	Z196	X197	Y197	Z197	X198	Y198	Z198	X199	Y199	Z199	X200	Y200	Z200	X201	Y201	Z201	X202	Y202	Z202	X203	Y203	Z203	X204	Y204	Z204	X205	Y205	Z205	X206	Y206	Z206	X207	Y207	Z207	X208	Y208	Z208	X209	Y209	Z209	X210	Y210	Z210	X211	Y211	Z211	X212	Y212	Z212	X213	Y213	Z213	X214	Y214	Z214	X215	Y215	Z215	X216	Y216	Z216	X217	Y217	Z217	X218	Y218	Z218	X219	Y219	Z219	X220	Y220	Z220	X221	Y221	Z221	X222	Y222	Z222	X223	Y223	Z223	X224	Y224	Z224	X225	Y225	Z225	X226	Y226	Z226	X227	Y227	Z227	X228	Y228	Z228	X229	Y229	Z229	X230	Y230	Z230	X231	Y231	Z231	X232	Y232	Z232	X233	Y233	Z233	X234	Y234	Z234	X235	Y235	Z235	X236	Y236	Z236	X237	Y237	Z237	X238	Y238	Z238	X239	Y239	Z239	X240	Y240	Z240	

28	0.135	-97.23519	-462.40359	458.11169	220.75690	-462.52567	449.26541	-97.37132	-144.42392	448.83112	-88.38911	-453.12283	775.96832	-156.28185	-481.12457	71.57638	193.03386	-481.73553	25.80033	-164.72279	-123.81195	2.39471	-109.73489	-411.43274	425.84476	-6.63731	-370.74255	882.41711	231.74945	-370.80215	881.69531	-6.58958	-172.08704	881.77435	-6.03563	-370.09995	1081.07178	122.46719	-459.85550	457.55322	456.54065	-459.85031	457.65253	122.46198	-125.78207	457.66364	122.36788	-459.96591	791.62671	172.78899	-462.59091	68.79619	533.52625	-462.52545	121.38977	165.86601	-101.15314	115.83072	120.65300	-510.13217	426.45404	-50.83867	-419.09518	1531.53235	26.75284	-419.26169	1535.56458	-82.09496	-582.84735	1481.99353	40.88974	-590.67145	1479.71082	-14.25063	-574.61578	1345.68726	-7.34775	-565.20239	1081.38806	-12.29405	-433.28079	1298.23743	-13.08586	-360.07794	1196.24731	132.58527	-561.17719	1257.86194	-161.04558	-381.43195	870.97162	147.77097	-360.05319	893.86261	-37.11123	-579.03821	898.58087	57.43047	-582.81635	901.48309	121.68001	-484.03513	1325.94482	257.29733	-431.25543	1310.56738	381.93033	-372.53345	1277.35425	356.71158	-288.88416	1231.45374	484.32751	-306.96014	1265.75793	568.20129	-243.72995	1349.04175	577.07593	-228.77275	1278.08447	624.31964	-235.35104	1315.09070	-164.96518	-481.89435	1312.86304	-292.73941	-397.46796	1275.71545	-365.33026	-309.50345	1243.24084	-335.54898	-254.60405	1214.53711	-463.01147	-239.28491	1252.70386	-549.43274	-138.64532	1324.44263	-558.21985	-150.73392	1252.71729	-605.50183	-129.57478	1290.94373	230.81430	-440.21054	744.54114	203.09218	-459.01895	561.92480	187.31691	-379.64548	656.18677	216.11235	-450.17642	656.33478	200.12823	-451.29422	465.38370	44.80613	-468.41672	449.72272	138.60512	-427.70444	332.50540	165.97816	-430.25928	149.07944	219.24361	-463.66339	251.34538	154.65927	-434.96194	240.77020	216.28885	-467.02460	70.19327	137.01302	-458.94952	68.48352	191.32913	-521.23907	39.98137	164.61781	-365.16486	46.00118	220.19118	-387.82181	37.13593	175.63724	-306.78961	27.67478	-200.57896	-413.23825	759.16492	-174.67863	-425.75482	570.86389	-145.26695	-355.72455	669.91077	-187.85138	-415.93958	665.33362	-177.26329	-466.14368	466.24393	-17.20708	-458.66348	449.97943	-123.55179	-430.13672	347.46136	-140.52193	-441.33832	166.09251	-194.06607	-478.95645	265.91919	-130.87065	-444.49454	256.52887	-188.67484	-494.10873	71.26185	-116.70728	-465.24600	70.73297	-147.33855	-532.85669	33.36290	-150.38269	-377.94467	51.12736	-204.29156	-404.21652	33.84619	-159.33279	-321.36728	25.09203	19.01228	-613.05078	762.68573	-152.69106	-479.67737	70.99741	-92.86358	-451.64911	776.07861	-87.14252	-461.41934	496.13126	-96.21577	-471.40720	496.40283	-106.20535	-462.33182	496.42419	-97.99881	-446.51752	457.90314	-71.81807	-461.18695	457.72107	-95.33377	-493.82367	483.97281	-119.47516	-463.46814	458.45346	-89.47453	-457.93945	769.75220	-92.25268	-464.35794	776.24542	-95.64172	-458.06760	782.57184	-106.33288	-449.65222	734.88562	-96.34328	-458.72760	734.86432	-105.41653	-468.71548	735.13586	-124.61014	-459.78833	757.56726	-97.13211	-452.34393	496.15259	-123.26587	-319.13638	17.41033	-211.61543	-382.95917	-13.39963	-154.23198	-547.18738	-18.03445	-110.74170	-538.78381	-5.62578	-155.66255	-553.57831	76.57056	-165.16611	-508.66364	79.46101	-92.55813	-458.00351	776.16199	-118.45331	-505.79263	938.64313	-72.35220	-466.96469	806.56982	-166.33023	-420.55896	873.58209	-67.93491	-464.02521	744.23187	-97.23518	-462.40356	458.11169	-28.18903	-643.56281	901.83514	-109.99787	-433.68472	450.74191	-130.82758	-471.88110	146.68335	-137.22980	-487.12173	148.28056	-163.14450	-484.90561	151.89407	-161.71243	-441.61957	110.17448	-114.56514	-464.51474	80.69228	-139.86198	-496.11520	109.47601	-188.59874	-494.14905	76.78710	-55.50071	-462.46408	452.13571	-91.40840	-476.93573	457.92542	-127.31609	-491.40741	463.71512	-112.69645	-454.95923	380.82852	-97.55405	-461.51685	378.95190	-103.95627	-476.75745	380.54913	-126.28020	-473.09418	383.58368	-145.96997	-465.32349	148.55995	-173.50818	-398.23920	666.64655	-152.71326	-450.14383	259.82434	24.00000	2.00000	2006.00000	1.76116	-475.83493	891.22455	6.26317	-451.16232	783.48712	1.76116	-475.83493	891.22455	0.00000	0.00000	0.00000	0.00000	0.00000	0.00000	-16.32276	-502.96893	1507.20032	-97.23518	-462.40356	458.11169	-147.33855	-532.85669	33.36290	-152.69106	-479.67737	70.99741	-6.63731	-370.74255	882.41711	122.46719	-459.85547	457.55319	191.32913	-521.23907	39.98137	176.65094	-462.98706	69.33839	-13.27234	-503.94830	1321.96240	0.00000	0.00000	0.00000	-6.63731	-370.74255	882.41711	176.65094	-462.98706	69.33839	104.38776	-437.68506	790.46655	110.42734	-459.06082	497.07495	121.42630	-467.94543	498.06281	130.33517	-456.92188	498.01364	120.72545	-443.26535	456.68903	95.92340	-462.70740	456.30164	124.56004	-491.79297	485.94226	145.69299	-457.36002	458.64835	102.11414	-444.98828	783.99060	105.78116	-450.95715	791.15790	101.41883	-444.36691	797.32098	119.57106	-434.96054	747.59583	110.66219	-445.98410	747.64502	121.66115	-454.86868	748.63287	139.30716	-441.68826	772.38116	119.33621	-448.03726	497.02579	128.98119	-318.12192	5.53022	230.92184	-364.70432	-10.79253	206.91098	-537.05890	-9.16869	161.45215	-536.79822	-2.13830	198.23540	-538.02985	85.26007	198.57712	-492.03391	85.76443	105.08446	-444.32111	790.81226	113.15910	-489.75858	955.81134	82.05607	-456.27530	818.01532	157.92714	-398.11127	897.61768	86.47337	-453.33585	755.67737	122.46719	-459.85547	457.55319	49.01510	-638.21814	907.55792	126.72454	-428.72046	449.98019	154.22833	-461.17215	145.35471	164.62405	-474.05984	146.90962	188.98590	-464.73792	150.23465	175.19966	-423.67685	108.39899	135.86406	-458.89984	79.44484	169.24901	-482.17242	108.04031	215.27046	-466.94901	74.76054	82.26082	-471.49234	452.03540	120.88034	-475.45428	457.45755	159.49986	-479.41623	462.87970	134.49406	-448.78268	379.98199	121.71808	-459.29321	378.28360	132.11380	-472.18091	379.83850	152.61369	-462.46277	382.62131	167.00432	-450.66162	147.05309	207.07446	-426.29166	654.21759	174.60896	-440.54236	244.31007	10.15962	-580.92725	900.03198	4.99430	-418.29584	769.90985	-13.27234	-503.94830	1321.96240	-80.00000	0.00000	0.00000	-80.00000	0.00000	0.00000	-19.15240	-579.24347	1483.23816	-101.07592	-382.50272	457.06277	-227.33855	-532.85669	33.36290	-182.46150	-405.42905	71.94906	-11.65948	-291.17050	875.85474	114.12536	-380.39929	453.41437	111.32913	-521.23907	39.98137	184.74725	-383.39929	69.82640	-13.27991	-424.11813	1327.17249	200.00000	0.00000	0.00000	0.00000	0.00000	80.00000	0.00000	0.00000	80.00000	-17.94133	-526.88647	1583.52417	-96.05899	-461.29706	538.09540	-147.33855	-532.85669	113.36290	-141.35756	-476.14713	150.11182	-12.95745	-364.58401	961.92896	118.30457	-456.13550	537.35815	191.32913	-521.23907	119.98137	165.59276	-462.34793	148.56786	-16.05687	-509.15549	1401.74414	0.00000	200.00000	0.00000	0.00000	80.00000	0.00000	0.00000	80.00000	0.00000	-96.25632	-499.78452	1506.50305	-17.33609	-458.57904	456.88382	-147.33855	-452.85669	33.36290	-79.30665	-450.10165	59.16504	72.95436	-365.23260	888.31683	201.92212	-451.31863	461.29962	191.32913	-441.23907	39.98137	255.46823	-471.07285	80.40427	66.67918	-504.12207	1324.74146	0.00000	0.00000	200.00000	-0.10099	0.10015	0.07719	0.06180	-0.06848	-0.00765	-247.33855	-532.85669	33.36290	-147.33855	-432.85669	33.36290	91.32913	-521.23907	39.98137	191.32913	-421.23907	39.98137 
29	0.140	-97.23355	-462.38849	458.10947	220.77048	-462.51074	449.27182	-97.36900	-144.39685	448.83716	-88.39610	-453.11600	775.97827	-156.27428	-481.12408	71.58331	193.03191	-481.73740	25.79887	-164.71649	-123.82281	2.38832	-109.71870	-411.41888	425.83908	-6.64966	-370.72507	882.41290	231.72150	-370.78610	881.67316	-6.60084	-172.08257	881.75415	-6.03302	-370.06647	1081.05444	122.49477	-459.83426	457.56192	456.55334	-459.82626	457.71539	122.48671	-125.77567	457.73251	122.34129	-460.00485	791.62042	172.79727	-462.56970	68.77708	533.55908	-462.50488	121.36414	165.87898	-101.10583	115.79275	120.66724	-510.09161	426.46216	-50.84530	-419.11050	1531.54822	26.74914	-419.27161	1535.56067	-82.06853	-582.86322	1481.97888	40.90465	-590.67609	1479.68933	-14.25995	-574.62335	1345.68811	-7.32963	-565.17462	1081.38574	-12.28087	-433.29675	1298.24329	-13.08021	-360.10019	1196.24011	132.60439	-561.19733	1257.87671	-161.04921	-381.40875	870.98199	147.74989	-360.04132	893.84375	-37.12514	-579.02466	898.58295	57.44333	-582.80176	901.46790	121.67428	-484.05545	1325.95142	257.33636	-431.24927	1310.59485	381.94324	-372.53207	1277.36060	356.70737	-288.88733	1231.42224	484.32870	-306.95248	1265.75305	568.19501	-243.72316	1349.03796	577.10071	-228.77083	1278.06775	624.31464	-235.35510	1315.09204	-164.93283	-481.90005	1312.85645	-292.74512	-397.49420	1275.73730	-365.23105	-309.50519	1243.19348	-335.59802	-254.66579	1214.60437	-463.12073	-239.38042	1252.84583	-549.46564	-138.69852	1324.50354	-558.21356	-150.74455	1252.74084	-605.49481	-129.64973	1291.02087	230.81285	-440.20956	744.54059	203.09747	-459.02112	561.93164	186.95294	-379.59082	655.86523	216.09441	-450.17072	656.31201	200.15858	-451.27524	465.40753	44.83095	-468.39319	449.71625	138.62296	-427.69305	332.53253	165.96431	-430.25748	149.07524	219.23737	-463.67035	251.34137	154.65263	-434.97128	240.78862	216.30083	-467.01642	70.19954	137.01794	-458.91766	68.43866	191.43193	-521.40375	40.03554	164.61505	-365.15646	46.00615	220.19438	-387.81604	37.14613	175.61372	-306.79196	27.67083	-200.58382	-413.22650	759.17041	-174.67615	-425.73215	570.86108	-145.27748	-355.69617	669.91711	-187.85999	-415.91306	665.34821	-177.27086	-466.13556	466.25494	-17.19623	-458.64136	449.96393	-123.55905	-430.13300	347.46808	-140.56467	-441.32462	166.12679	-194.05434	-478.94843	265.92648	-130.87210	-444.48553	256.52249	-188.66733	-494.10852	71.25774	-116.69983	-465.24527	70.75093	-147.37650	-532.84033	33.37899	-150.37083	-377.93515	51.12270	-204.33063	-404.22726	33.83218	-159.33495	-321.37109	25.09656	18.97982	-613.01685	762.68433	-152.68358	-479.67688	71.00433	-92.88321	-451.62228	776.08789	-87.14305	-461.40198	496.13101	-96.21576	-471.39099	496.40237	-106.20652	-462.31616	496.42276	-97.99859	-446.50189	457.90030	-71.81559	-461.16953	457.72043	-95.33095	-493.80865	483.97272	-119.47426	-463.45502	458.44983	-89.49307	-457.91275	769.76172	-92.27117	-464.33151	776.25525	-95.66131	-458.04102	782.58142	-106.35052	-449.62793	734.89252	-96.35976	-458.70276	734.87213	-105.43247	-468.69180	735.14349	-124.62902	-459.76526	757.57410	-97.13381	-452.32715	496.15140	-123.27027	-319.14874	17.38714	-211.62930	-382.96484	-13.40954	-154.26834	-547.20172	-18.01715	-110.77663	-538.80188	-5.61100	-155.69748	-553.57593	76.58902	-165.19484	-508.65945	79.47186	-92.57719	-457.97690	776.17157	-118.45749	-505.76340	938.64380	-72.37015	-466.93796	806.57538	-166.33450	-420.53308	873.59235	-67.95869	-463.99814	744.24121	-97.23354	-462.38846	458.10944	-28.20676	-643.52698	901.82855	-109.99614	-433.67068	450.73862	-130.82155	-471.87778	146.68845	-137.22348	-487.11804	148.28612	-163.13762	-484.90210	151.89917	-161.70557	-441.61862	110.17896	-114.55882	-464.51389	80.69884	-139.85507	-496.11276	109.48279	-188.59033	-494.14838	76.79403	-55.49999	-462.44876	452.13409	-91.40675	-476.92023	457.92380	-127.31351	-491.39169	463.71347	-112.69365	-454.94733	380.82764	-97.55153	-461.50470	378.95151	-103.95345	-476.74496	380.54919	-126.27693	-473.08188	383.58325	-145.96367	-465.32037	148.56459	-173.51248	-398.21826	666.64954	-152.72601	-450.13535	259.84045	24.00000	2.00000	2006.00000	1.75472	-475.81912	891.21912	6.23852	-451.13931	783.48730	1.75472	-475.81912	891.21912	0.00000	0.00000	0.00000	0.00000	0.00000	0.00000	-16.31501	-502.98035	1507.19434	-97.23354	-462.38846	458.10944	-147.37650	-532.84033	33.37899	-152.68358	-479.67688	71.00433	-6.64966	-370.72504	882.41284	122.49477	-459.83423	457.56189	191.43193	-521.40375	40.03554	176.65939	-462.96704	69.31910	-13.27041	-503.96005	1321.96570	0.00000	0.00000	0.00000	-6.64966	-370.72504	882.41284	176.65939	-462.96704	69.31910	104.35786	-437.66595	790.45734	110.44847	-459.03940	497.07974	121.44646	-467.92398	498.06946	130.35533	-456.90125	498.02191	120.75384	-443.24475	456.69754	95.95229	-462.68509	456.30563	124.58138	-491.77051	485.94989	145.71944	-457.33969	458.66110	102.08524	-444.96875	783.98120	105.75061	-450.93753	791.14880	101.38761	-444.34744	797.31085	119.54819	-434.94186	747.59125	110.63931	-445.96460	747.63873	121.63730	-454.84918	748.62848	139.27876	-441.67010	772.37891	119.35735	-448.01663	497.03223	128.93736	-318.17239	5.52218	230.91042	-364.68710	-10.79123	207.02327	-537.05829	-9.10837	161.56470	-536.82788	-2.07529	198.35413	-538.00397	85.32124	198.66289	-492.00760	85.81023	105.05424	-444.30173	790.80310	113.14184	-489.73782	955.79010	82.02940	-456.25424	818.00629	157.90456	-398.09729	897.59723	86.44086	-453.31442	755.67206	122.49477	-459.83423	457.56189	48.99302	-638.18512	907.54401	126.76074	-428.69815	449.98932	154.24011	-461.14850	145.34160	164.63295	-474.04001	146.89555	188.99918	-464.72443	150.21977	175.22128	-423.65536	108.38372	135.87163	-458.86844	79.42862	169.25375	-482.15295	108.02321	215.28056	-466.94031	74.73929	82.28225	-471.46030	452.04556	120.90343	-475.43356	457.46576	159.52461	-479.40686	462.88596	134.52119	-448.76126	379.98544	121.74134	-459.26880	378.28726	132.13419	-472.16031	379.84122	152.63828	-462.44742	382.62341	167.01997	-450.64096	147.03976	206.95442	-426.27383	654.11249	174.60822	-440.54028	244.31638	10.15909	-580.91321	900.02539	4.96950	-418.27429	769.91138	-13.27041	-503.96005	1321.96570	-80.00000	0.00000	0.00000	-80.00000	0.00000	0.00000	-19.14140	-579.25171	1483.22156	-101.08129	-382.48798	457.05753	-227.37650	-532.84033	33.37899	-182.45479	-405.42883	71.95287	-11.66994	-291.15274	875.85181	114.15644	-380.37772	453.42200	111.43193	-521.40375	40.03554	184.77815	-383.38159	69.80957	-13.26434	-424.13025	1327.18127	200.00000	0.00000	0.00000	0.00000	0.00000	80.00000	0.00000	0.00000	80.00000	-17.92195	-526.90906	1583.51489	-96.06261	-461.27908	538.09320	-147.37650	-532.84033	113.37900	-141.35101	-476.14359	150.11873	-12.96241	-364.56720	961.92535	118.31813	-456.11450	537.36615	191.43193	-521.40375	120.03554	165.60582	-462.32773	148.54921	-16.05332	-509.17224	1401.74719	0.00000	200.00000	0.00000	0.00000	80.00000	0.00000	0.00000	80.00000	0.00000	-96.24892	-499.80243	1506.50769	-17.33471	-458.55688	456.88660	-147.37650	-452.84033	33.37899	-79.29933	-450.10089	59.17168	72.94272	-365.21762	888.30542	201.94934	-451.30017	461.32245	191.43193	-441.40375	40.03554	255.47502	-471.07544	80.38027	66.68118	-504.14752	1324.74231	0.00000	0.00000	200.00000	-0.10099	0.10015	0.07719	0.06180	-0.06848	-0.00765	-247.37650	-532.84033	33.37899	-147.37650	-432.84033	33.37899	91.43193	-521.40375	40.03554	191.43193	-421.40375	40.03554 
